<svg width="24" height="19" viewBox="0 0 24 19" fill="none" xmlns="http://www.w3.org/2000/svg">
<path d="M1 18H3.2M3.2 18H9.8M3.2 18V9.10817C3.2 8.55233 3.2 8.27426 3.27147 8.01561C3.3348 7.7864 3.43957 7.56949 3.58027 7.37348C3.73905 7.1523 3.9597 6.96888 4.40205 6.60286L9.6838 2.2324C10.5038 1.55385 10.9139 1.21456 11.3757 1.08541C11.7829 0.97153 12.2169 0.97153 12.6241 1.08541C13.0863 1.21465 13.4969 1.55427 14.3182 2.23384L19.5982 6.60286C20.0405 6.96887 20.2613 7.1523 20.42 7.37348C20.5607 7.56949 20.6647 7.7864 20.728 8.01561C20.7995 8.27426 20.8 8.55233 20.8 9.10817V18M9.8 18H14.2M9.8 18V13.839C9.8 12.69 10.785 11.7586 12 11.7586C13.215 11.7586 14.2 12.69 14.2 13.839V18M14.2 18H20.8M20.8 18H23" stroke="#050A78" stroke-width="2" stroke-linecap="round" stroke-linejoin="round"/>
</svg>
